<?xml version="1.0" encoding="utf-8"?>
<!-- Generator: Adobe Illustrator 19.0.0, SVG Export Plug-In . SVG Version: 6.00 Build 0)  -->
<svg version="1.1" id="Layer_1" xmlns="http://www.w3.org/2000/svg" xmlns:xlink="http://www.w3.org/1999/xlink" x="0px" y="0px"
	 viewBox="0 0 612 724.8" style="enable-background:new 0 0 612 724.8;" xml:space="preserve">
<style type="text/css">
	.st0{fill:#866BAF;}
	.st1{fill:#7459A5;}
</style>
<g id="XMLID_1_">
	<path id="XMLID_30_" class="st0" d="M398.5,376.5c-2.8-1.2-3.9,1.1-5.4,2.6c-8,8-15.9,16.1-24,24c-11.2,11-25.7,13.9-39.1,7.9
		c-12-5.4-21.2-19.1-20.5-31.6c0.5-8.5,3.2-16.5,9.5-22.8c35.2-35.4,70.5-70.7,105.7-106c15.3-15.4,30.8-30.7,46.1-46.1
		c16.8-17,36.9-17.2,53.6,0.1c41.1,42.5,68.3,92.6,80.3,150.5c5.6,27.1,7.8,54.6,5.8,82.3C603.7,528.8,564.3,603,492.6,660
		c-35.7,28.4-76.3,46.9-120.6,57.2c-29.2,6.8-59.2,9.3-89,6.6c-85.4-7.9-157-43.6-212.6-109.7c-31.8-37.8-52.7-81.1-63.7-129.3
		c-8-35.2-9-70.6-4.5-106.1c9.4-74,43.6-135,96.7-186.8c60.9-59.5,120.6-120.4,180.8-180.6C298.4-7.4,328.4-2.2,337,21.8
		c4.9,13.5,2.5,26.6-8.3,37.4c-28.5,28.3-56.9,56.7-85.2,85.1c-36.9,36.9-74.2,73.3-110.4,110.8c-37,38.2-57.8,84.5-63.8,137.4
		c-2.6,23-2.6,46.2,2,68.8c8.5,42.1,26.2,80.2,54.9,112.8c25.1,28.4,54.9,50.2,90,64.4c36.6,14.8,74.7,20.8,113.9,16.1
		c73.7-8.9,131.8-44,173.5-105.6c17-25,28.4-52.5,34.2-82.3c4.1-20.7,6-41.5,4.6-62.6c-2.9-44.1-16.5-84.5-41.6-120.9
		c-4.8-6.9-5.3-7-11.3-1c-12.8,12.9-25.7,25.8-38.6,38.7c-1.4,1.4-3.1,2.6-3.2,4.8c-1.4,0-2.5,0.6-3.5,1.6
		c-14.4,14.4-28.9,28.9-43.4,43.3C399.2,372.3,398.5,374.2,398.5,376.5z"/>
</g>
<path id="XMLID_29_" class="st0" d="M465.1,361.6c5.1,11.2,6.9,23.2,8.4,35.3c1.1,9,1.2,18.1,1,27.1c-0.7,40.9-15.1,76.6-42.1,107
	c-24.9,28-55.7,45.9-92.8,53.3c-58.4,11.6-109.1-3.8-152.3-43.9c-29.2-27.1-46.4-61.4-50.8-100.7c-6.2-54.7,9.9-102.9,49.2-142.4
	c31.3-31.5,62.9-62.5,94-94.2c18.3-18.7,48-12.2,56.9,9.5c4.2,10.3,3,27.9-7,37.7c-31.5,30.9-62.4,62.5-93.8,93.6
	c-17.2,17-28.2,37.1-31.3,60.9c-5.1,40,9.7,72.5,41.8,95.8c60.1,43.5,142.4,10,158.2-60.1c1.7-7.5,2.7-15.2,2.4-23
	c3.1-0.2,4.4-2.8,6.3-4.6C430.5,395.9,447.8,378.8,465.1,361.6z"/>
<path id="XMLID_28_" class="st0" d="M434.6,130.2c0,21-13.9,35-36.1,33.9c-18.6-0.9-31.3-15.6-31.5-33.9
	c-0.1-19,14.6-34.1,34.9-34.1C419.6,96.1,437.4,112.7,434.6,130.2z"/>
<path id="XMLID_27_" class="st1" d="M465.1,361.6c-17.3,17.1-34.6,34.2-51.9,51.3c-1.8,1.8-3.2,4.4-6.3,4.6c0-14.2-3.2-27.8-8.4-41
	c0-2.3,0.7-4.2,2.5-5.9c14.5-14.4,28.9-28.9,43.4-43.3c1-1,2.1-1.6,3.5-1.6C455.2,336.9,461.1,348.8,465.1,361.6z"/>
</svg>
